<svg xmlns="http://www.w3.org/2000/svg" viewBox="0 0 412 412"><defs><style>.cls-1{fill:#0d0d0d;}.cls-2{fill:#b7ab98;fill-rule:evenodd;}</style></defs><title>Asset 1</title><g id="Layer_2" data-name="Layer 2"><g id="Layer_2-2" data-name="Layer 2"><circle class="cls-1" cx="206" cy="206" r="206"/><g id="Adaptive_Test"><path class="cls-2" d="M220.42,177c-2.34-1.82-3.4-4.72-4.91-7.21-3-5-6-10.17-8.9-15.34a43.84,43.84,0,0,0-4.75-7.21c-2.21,1.7-3.24,4.44-4.61,6.75-9.59,16.27-20,32.56-29.76,48.94-8.4,14.13-16.63,28.32-25.46,42.18-2.89,4.54-5.33,9.45-8.74,13.65-16.11-.07-33.27.25-49.7-.46.11-2,1.54-3.59,2.45-5.22,6.59-11.67,13.66-23.52,20.56-35.28,7.83-13.36,15.64-26.74,23.62-40a56.18,56.18,0,0,0,2.76-5.21c2.4-5.12,5.74-10.23,8.75-15.19,4-6.61,7.83-13.31,11.81-19.94,8-13.29,15.47-26.9,23.62-40,16.34-.19,34.55-.4,50.16.16,2.18,2.47,3.44,5.57,5.07,8.43s3.21,5.8,4.75,8.74c3.07,5.87,6.94,11.3,9.67,17.34-1.51,4.18-4.23,7.72-6.45,11.5C233.84,154.63,227.42,166,220.42,177Z"/><path class="cls-2" d="M328.41,97.65c-2.08,4.95-5.06,9.4-7.67,14s-5,9.28-8,13.65c-13.53,22.38-26.77,45.09-40.18,67.65s-26.08,45.65-39.89,68c-9.33,15.79-18.3,31.83-27.92,47.55a39.05,39.05,0,0,1-4.3,6.44c-1.57-1.05-2.31-3-3.22-4.6-13.15-23.23-25.51-46.53-38.81-70.1-.81-1.46-2.58-4-2.6-5.07,0-1.47,2.16-4.12,3.07-5.67,5.35-9.16,11.35-17.48,16.87-26.39,1.08-1.75,2.26-3.47,3.37-5.21s1.86-3.83,3.68-4.91c4.48,7.19,8.88,14.81,13,22.4,1.36,2.47,2.46,5.19,4.45,7.21,1.56-.52,2.05-2.33,2.76-3.53,17.66-29.77,35.32-60.34,53.08-90.2,6.24-10.48,11.65-21.36,18.41-31.45C291.74,97.12,311.49,97,328.41,97.65Z"/><path class="cls-2" d="M280.55,193.22h.31Q294.93,217.4,308.47,242c1.5,2.74,3,5.47,4.45,8.28s3.53,5.32,4.29,8.44c-15.81.61-33.41.3-49.55.15-2-1.33-2.93-3.86-4.14-6-2.9-5.11-5.87-10.81-8.59-16.26.49-2.78,2.68-4.67,3.84-7.06.81-1.67,1.36-3.35,2.3-4.91,4.37-7.21,9-14.82,13.5-22.24,1.83-3,3.59-6.25,5.52-8.9A1.06,1.06,0,0,1,280.55,193.22Z"/></g></g></g></svg>