<?xml version="1.0" encoding="utf-8"?>
<!-- Generator: Adobe Illustrator 23.0.5, SVG Export Plug-In . SVG Version: 6.00 Build 0)  -->
<svg version="1.1" id="Layer_1" xmlns="http://www.w3.org/2000/svg" xmlns:xlink="http://www.w3.org/1999/xlink" x="0px" y="0px"
	 viewBox="0 0 800 800" style="enable-background:new 0 0 800 800;" xml:space="preserve">
<style type="text/css">
	.st0{fill:#0D0D0D;}
	.st1{fill:#B7AB98;}
</style>
<path class="st0" d="M33.3,43.3h733.3v713.3H33.3V43.3z"/>
<path class="st1" d="M33.3,43.3h733.3v713.3H33.3V43.3z M0,790h800V10H0V790z M524,288c0-2.7,1-4,4-4h52.3c2.7,0,4,1,4,4v263
	c0,2.7-0.7,4-4,4h-51.7c-3.3,0-4.3-1.7-4.3-4.3V288L524,288L524,288z M520.3,212.3c0-21.3,15-34,34-34c20.3,0,34,13.7,34,34
	c0,22-14.3,34-34.7,34C534.3,246.3,520.3,234.3,520.3,212.3z M370.3,397.7C361,360.7,339,280,330.7,241H330
	c-7,39-24.7,105-38.7,156.7H370.3z M277.7,451.7l-26.3,100c-0.7,2.7-1.7,3.3-5,3.3h-49c-3.3,0-4-1-3.3-5l94.7-331.3
	c1.7-6,2.7-11.3,3.3-27.7c0-2.3,1-3.3,2.7-3.3h70c2.3,0,3.3,0.7,4,3.3l106,359.7c0.7,2.7,0,4.3-2.7,4.3h-55.3c-2.7,0-4.3-0.7-5-3
	l-27.3-100.3H277.7L277.7,451.7z"/>
</svg>
