<?xml version="1.0" encoding="utf-8"?>
<!-- Generator: Adobe Illustrator 23.0.5, SVG Export Plug-In . SVG Version: 6.00 Build 0)  -->
<svg version="1.1" id="Layer_1" xmlns="http://www.w3.org/2000/svg" xmlns:xlink="http://www.w3.org/1999/xlink" x="0px" y="0px"
	 viewBox="0 0 480 480" style="enable-background:new 0 0 480 480;" xml:space="preserve">
<style type="text/css">
	.st0{fill:#B7AB98;}
	.st1{fill:#0D0D0D;}
</style>
<path class="st0" d="M420,370c0,27.6-22.4,50-50,50H110c-27.6,0-50-22.4-50-50V110c0-27.6,22.4-50,50-50h260c27.6,0,50,22.4,50,50
	V370z"/>
<path class="st1" d="M330.3,256c-6.5-9-15.9-15.2-28-18.5c0,0,10.2-3.7,19.4-17.5c5.5-8.8,8.3-19.4,8.3-31.8
	c0-21.5-7.8-38-23.4-49.3C291,127.6,273.4,120,243.5,120H150v240h104.3c28.3-0.2,49.6-6.3,64.1-18c14.4-11.9,21.6-29.5,21.6-53
	C340,276,336.8,265,330.3,256z M210,160c0,0,41.7,0,42.5,0c15.2,0,27.5,12.3,27.5,27.5S267.7,215,252.5,215c-0.8,0-42.5,0-42.5,0
	V160z M260,320h-50v-60h50c16.6,0,30,13.4,30,30S276.6,320,260,320z"/>
</svg>
