<?xml version="1.0" encoding="utf-8"?>
<!-- Generator: Adobe Illustrator 23.0.5, SVG Export Plug-In . SVG Version: 6.00 Build 0)  -->
<svg version="1.1" id="Layer_1" xmlns="http://www.w3.org/2000/svg" xmlns:xlink="http://www.w3.org/1999/xlink" x="0px" y="0px"
	 viewBox="0 0 800 800" style="enable-background:new 0 0 800 800;" xml:space="preserve">
<style type="text/css">
	.st0{fill:#B7AB98;}
</style>
<path class="st0" d="M427.5,400c0-64.5,51-116.7,113.8-116.7c62.8,0,113.7,52.2,113.7,116.7c0,64.4-50.9,116.7-113.7,116.7
	C478.5,516.7,427.5,464.5,427.5,400z"/>
<path class="st0" d="M200,633.3c0-64.4,50.9-116.7,113.8-116.7h113.8v116.7c0,64.4-50.9,116.7-113.8,116.7S200,697.8,200,633.3z"/>
<path class="st0" d="M427.5,50v233.3h113.8c62.8,0,113.7-52.2,113.7-116.7C655,102.3,604.1,50,541.3,50H427.5z"/>
<path class="st0" d="M200,166.6c0,64.4,50.9,116.7,113.8,116.7h113.8V50H313.8C250.9,50,200,102.3,200,166.6z"/>
<path class="st0" d="M200,400c0,64.4,50.9,116.7,113.8,116.7h113.8V283.3H313.8C250.9,283.3,200,335.5,200,400z"/>
</svg>
