<?xml version="1.0" encoding="utf-8"?>
<!-- Generator: Adobe Illustrator 23.0.5, SVG Export Plug-In . SVG Version: 6.00 Build 0)  -->
<svg version="1.1" id="Layer_1" xmlns="http://www.w3.org/2000/svg" xmlns:xlink="http://www.w3.org/1999/xlink" x="0px" y="0px"
	 viewBox="0 0 480 480" style="enable-background:new 0 0 480 480;" xml:space="preserve">
<style type="text/css">
	.st0{fill:#B7AB98;}
	.st1{fill:#51504F;}
	.st2{fill:#0D0D0D;}
</style>
<path class="st0" d="M410,50H70l30,340l140,40l140-40L410,50L410,50z"/>
<path class="st1" d="M240,80v319l112-32l25-287H240z"/>
<path class="st2" d="M240,250v-40h86l-7,115l-79,26v-42l41-14l3-45L240,250L240,250z M329,170l3-40h-92v40H329z"/>
<path class="st2" d="M240,309v42l-79-26l-4-55h40l2,25L240,309z M191,170h49v-40h-91l7,120h84v-40h-46L191,170z"/>
</svg>
