<?xml version="1.0" encoding="utf-8"?>
<!-- Generator: Adobe Illustrator 23.0.5, SVG Export Plug-In . SVG Version: 6.00 Build 0)  -->
<svg version="1.1" id="Layer_1" xmlns="http://www.w3.org/2000/svg" xmlns:xlink="http://www.w3.org/1999/xlink" x="0px" y="0px"
	 viewBox="0 0 480 480" style="enable-background:new 0 0 480 480;" xml:space="preserve">
<style type="text/css">
	.st0{fill:#B7AB98;}
	.st1{fill:#51504F;}
	.st2{fill:#0D0D0D;}
</style>
<path class="st0" d="M410,50H70l30,340l140,40l140-40L410,50L410,50z"/>
<path class="st1" d="M240,80v319l112-32l25-287H240z"/>
<path class="st2" d="M331,130h-91v40h49l-3,40h-46v40h44l-3,45l-41,14v42l79-26l7-115l0,0L331,130z"/>
<path class="st2" d="M240,130v40h-89l-3-40H240z M194,210l2,40h44v-40H194z M198,270h-40l3,55l79,26v-42l-41-14L198,270z"/>
</svg>
