<?xml version="1.0" encoding="utf-8"?>
<!-- Generator: Adobe Illustrator 23.0.5, SVG Export Plug-In . SVG Version: 6.00 Build 0)  -->
<svg version="1.1" id="Layer_1" xmlns="http://www.w3.org/2000/svg" xmlns:xlink="http://www.w3.org/1999/xlink" x="0px" y="0px"
	 viewBox="0 0 800 800" style="enable-background:new 0 0 800 800;" xml:space="preserve">
<style type="text/css">
	.st0{fill:#B7AB98;}
</style>
<g>
	<path class="st0" d="M400,798.5c-11,0-21.3-2.9-30.8-8.1l-97.6-58c-14.7-8.1-7.3-11-2.9-12.5c19.8-6.6,23.5-8.1,44-19.8
		c2.2-1.5,5.1-0.7,7.3,0.7l74.8,44.7c2.9,1.5,6.6,1.5,8.8,0l292.7-169.5c2.9-1.5,4.4-4.4,4.4-8.1V230c0-3.7-1.5-6.6-4.4-8.1
		L403.7,53.2c-2.9-1.5-6.6-1.5-8.8,0L102.2,221.9c-2.9,1.5-4.4,5.1-4.4,8.1v338.2c0,2.9,1.5,6.6,4.4,8.1l80,46.2
		c43.3,22,70.4-3.7,70.4-29.3V259.3c0-4.4,3.7-8.8,8.8-8.8h37.4c4.4,0,8.8,3.7,8.8,8.8v333.8c0,58-31.5,91.7-86.6,91.7
		c-16.9,0-30.1,0-67.5-18.3l-77-44c-19.1-11-30.8-31.5-30.8-53.6V230.7c0-22,11.7-42.5,30.8-53.6L369.2,7.7
		c18.3-10.3,43.3-10.3,61.6,0l292.7,169.5c19.1,11,30.8,31.5,30.8,53.6v338.2c0,22-11.7,42.5-30.8,53.6L430.8,791.9
		C421.3,796.3,410.3,798.5,400,798.5L400,798.5z M490.2,566c-128.4,0-154.8-58.7-154.8-108.6c0-4.4,3.7-8.8,8.8-8.8h38.1
		c4.4,0,8.1,2.9,8.1,7.3c5.9,38.9,22.7,58,100.5,58c61.6,0,88-13.9,88-46.9c0-19.1-7.3-33-103.4-42.5c-80-8.1-129.8-25.7-129.8-89.5
		c0-59.4,49.9-94.6,133.5-94.6c93.9,0,140.1,32.3,146,102.7c0,2.2-0.7,4.4-2.2,6.6c-1.5,1.5-3.7,2.9-5.9,2.9H579
		c-3.7,0-7.3-2.9-8.1-6.6c-8.8-40.3-31.5-53.6-91.7-53.6c-67.5,0-75.6,23.5-75.6,41.1c0,21.3,9.5,27.9,100.5,39.6
		c90.2,11.7,132.8,28.6,132.8,91.7C636.2,529.3,583.4,566,490.2,566L490.2,566z"/>
</g>
</svg>
