<?xml version="1.0" encoding="utf-8"?>
<!-- Generator: Adobe Illustrator 23.0.5, SVG Export Plug-In . SVG Version: 6.00 Build 0)  -->
<svg version="1.1" id="Layer_1" xmlns="http://www.w3.org/2000/svg" xmlns:xlink="http://www.w3.org/1999/xlink" x="0px" y="0px"
	 viewBox="0 0 800 800" style="enable-background:new 0 0 800 800;" xml:space="preserve">
<style type="text/css">
	.st0{fill:#0D0D0D;}
	.st1{fill:#B7AB98;}
</style>
<title>file_type_photoshop</title>
<path class="st0" d="M79.2,87.9h641.7v624.2H79.2V87.9z"/>
<path class="st1" d="M79.2,87.9h641.7v624.2H79.2V87.9z M50,741.3h700V58.7H50V741.3z M521.9,338.7c-23.1,0-30.9,11.7-30.9,21.3
	c0,10.5,5.2,17.8,36.2,33.8c45.8,22.2,60,43.5,60,74.7c0,46.7-35.6,71.8-83.7,71.8c-20.7,0.8-41.2-3.5-59.8-12.5
	c-2.1-0.9-2.3-2.3-2.3-4.7v-42.9c0-2.9,1.5-3.8,3.5-2.3c17.5,11.2,37.8,17.2,58.6,17.2c23.1,0,32.7-9.6,32.7-22.8
	c0-10.5-6.7-19.8-36.2-35c-41.4-19.8-58.6-40-58.6-73.5c0-37.6,29.4-68.8,80.5-68.8c17.8-0.8,35.5,2,52.2,8.2c2,1.3,3.1,3.5,2.9,5.8
	v40c0,2.3-1.5,3.8-4.4,2.9C557.2,343,539.6,338.5,521.9,338.7L521.9,338.7z M271.1,373.4c6.7,0.6,11.9,0.6,23.6,0.6
	c34.1,0,66.2-12,66.2-58.3c0-37.1-23-55.7-61.8-55.7c-11.7,0-22.8,0.6-28,0.9L271.1,373.4z M219.2,218.4c0-2,4.1-3.5,6.4-3.5
	c18.7-0.9,46.4-1.4,75.3-1.4c80.8,0,112.3,44.3,112.3,100.9c0,74.1-53.7,105.9-119.6,105.9c-11.1,0-14.9-0.6-22.8-0.6v112
	c0,2.3-0.9,3.5-3.5,3.5h-44.6c-2.3,0-3.5-0.9-3.5-3.5V218.6L219.2,218.4z"/>
</svg>
