<?xml version="1.0" encoding="UTF-8"?>
<svg xmlns="http://www.w3.org/2000/svg" xmlns:xlink="http://www.w3.org/1999/xlink" width="100px" height="116px" viewBox="0 0 100 116" version="1.1">
<g id="surface1">
<path style=" stroke:none;fill-rule:nonzero;fill:rgb(71.764706%,67.058824%,59.607843%);fill-opacity:1;" d="M 55.339844 0 C 85.175781 0 100 14.195312 100 36.875 C 100 53.839844 89.566406 64.898438 75.472656 66.746094 C 87.371094 69.140625 94.324219 75.964844 95.605469 89.421875 L 95.792969 91.898438 L 95.953125 94.210938 L 96.09375 96.375 L 96.191406 98.007812 L 96.296875 99.933594 L 96.351562 101.03125 L 96.425781 102.777344 L 96.488281 104.425781 L 96.519531 105.375 L 96.5625 106.894531 L 96.597656 108.628906 L 96.609375 109.46875 L 96.632812 111.902344 L 96.640625 114.4375 L 96.640625 115.957031 L 65.878906 115.957031 L 65.878906 115.324219 L 65.890625 114.09375 L 65.910156 112.898438 L 65.960938 109.996094 L 65.976562 109.023438 L 65.984375 107.5 L 65.984375 106.527344 L 65.976562 105.503906 L 65.960938 104.703125 L 65.9375 103.578125 L 65.902344 102.386719 L 65.851562 101.121094 L 65.789062 99.773438 L 65.753906 99.0625 L 65.6875 97.957031 L 65.617188 96.796875 L 65.503906 95.152344 L 65.40625 93.847656 C 65.378906 93.445312 65.347656 93.050781 65.3125 92.667969 L 65.234375 91.914062 C 64.21875 82.996094 60.679688 79.351562 54.621094 78.136719 L 54.113281 78.042969 C 53.765625 77.980469 53.414062 77.929688 53.054688 77.882812 L 52.507812 77.820312 C 52.417969 77.808594 52.324219 77.800781 52.234375 77.789062 L 51.667969 77.742188 L 51.09375 77.699219 L 50.507812 77.667969 L 49.917969 77.644531 L 49.3125 77.628906 L 48.699219 77.625 L 0 77.621094 L 0 53.46875 L 49.851562 53.46875 C 50.667969 53.46875 51.457031 53.453125 52.222656 53.421875 L 52.976562 53.386719 L 53.714844 53.335938 L 54.4375 53.277344 C 54.558594 53.269531 54.675781 53.257812 54.792969 53.246094 L 55.492188 53.171875 C 55.953125 53.117188 56.398438 53.054688 56.835938 52.984375 L 57.484375 52.875 C 65.574219 51.410156 69.617188 47.113281 69.617188 38.734375 C 69.617188 29.332031 63.027344 23.632812 49.851562 23.632812 L 0 23.632812 L 0 0 Z M 32.53125 97.949219 C 36.566406 97.949219 38.253906 100.191406 38.855469 102.335938 L 38.9375 102.644531 L 39 102.949219 L 39.042969 103.191406 L 39.0625 103.308594 L 39.09375 103.546875 L 39.113281 103.777344 L 39.125 103.890625 L 39.136719 104.113281 L 39.140625 104.21875 L 39.144531 104.429688 L 39.144531 115.957031 L 0 115.957031 L 0 97.949219 Z M 32.53125 97.949219 "/>
</g>
</svg>
