<?xml version="1.0" encoding="utf-8"?>
<!-- Generator: Adobe Illustrator 23.0.5, SVG Export Plug-In . SVG Version: 6.00 Build 0)  -->
<svg version="1.1" id="Layer_1" xmlns="http://www.w3.org/2000/svg" xmlns:xlink="http://www.w3.org/1999/xlink" x="0px" y="0px"
	 viewBox="0 0 800 800" style="enable-background:new 0 0 800 800;" xml:space="preserve">
<style type="text/css">
	.st0{fill:#B7AB98;}
</style>
<g>
	<path class="st0" d="M688.4,445.4c-27.8,0.1-52,6.8-72.3,16.8c-7.4-14.7-14.9-27.8-16.2-37.4c-1.5-11.2-3.2-18.1-1.5-31.5
		c1.7-13.4,9.6-32.5,9.5-34c-0.1-1.5-1.7-8.3-17.8-8.5c-16-0.1-29.9,3.1-31.5,7.3s-4.7,13.8-6.7,23.8c-2.8,14.6-32.1,66.6-48.8,93.8
		c-5.4-10.6-10.1-20-11.1-27.4c-1.5-11.2-3.2-18.1-1.5-31.5c1.7-13.4,9.6-32.5,9.5-34c-0.1-1.5-1.7-8.3-17.8-8.5
		c-16-0.1-29.9,3.1-31.5,7.3c-1.6,4.2-3.4,14.1-6.7,23.8c-3.4,9.6-42.3,96.5-52.5,118.9c-5.2,11.5-9.8,20.7-13,27l0,0
		c0,0-0.1,0.4-0.6,1.2c-2.8,5.4-4.4,8.3-4.4,8.3s0,0,0,0.1c-2.2,3.9-4.5,7.6-5.7,7.6c-0.9,0-2.5-10.5,0.3-24.8
		c5.8-30.2,19.7-77.1,19.5-78.7c0-0.9,2.6-9-9-13.3c-11.4-4.2-15.4,2.8-16.5,2.8c-1,0-1.7,2.5-1.7,2.5s12.7-52.8-24.2-52.8
		c-23,0-54.8,25.2-70.5,47.9c-9.9,5.4-31,16.9-53.6,29.3c-8.6,4.8-17.5,9.6-25.8,14.1c-0.6-0.6-1.2-1.3-1.7-1.9
		c-44.6-47.7-127.1-81.3-123.6-145.3c1.3-23.3,9.3-84.5,158.4-158.8c122.7-60.5,220.3-43.7,237.2-6.6
		c24.2,53-52.3,151.5-179.1,165.8c-48.4,5.4-73.7-13.3-80.1-20.3c-6.7-7.3-7.7-7.7-10.2-6.3c-4.1,2.2-1.5,8.7,0,12.5
		c3.8,9.9,19.4,27.4,45.8,36c23.3,7.6,80,11.8,148.6-14.7c76.8-29.7,136.8-112.3,119.2-181.6c-17.6-70.2-134.2-93.4-244.5-54.2
		c-65.6,23.3-136.7,60-187.8,107.8C7.9,285.1-1.7,334.5,2.2,355.2c14.1,73.4,115.4,121.2,155.9,156.6c-2,1.2-3.9,2.2-5.5,3.1
		c-20.3,10.1-97.5,50.4-116.7,93.1C14,656.4,39.3,691,56.1,695.7c52,14.4,105.5-11.5,134.2-54.4c28.7-42.8,25.2-98.5,11.9-124
		c-0.1-0.3-0.3-0.6-0.6-0.9c5.2-3.1,10.6-6.3,15.9-9.3c10.3-6.1,20.5-11.8,29.3-16.5c-5,13.6-8.6,29.7-10.3,53
		c-2.2,27.4,9,63,23.8,76.9c6.6,6.1,14.3,6.3,19.2,6.3c17.2,0,24.9-14.3,33.5-31.2c10.5-20.7,20-44.7,20-44.7s-11.8,65,20.3,65
		c11.7,0,23.5-15.2,28.7-22.9v0.1c0,0,0.3-0.4,0.9-1.5c1.2-1.9,1.9-3.1,1.9-3.1v-0.3c4.7-8.2,15.2-26.7,30.7-57.4
		c20.1-39.6,39.5-89.2,39.5-89.2s1.7,12.1,7.7,32.2c3.5,11.8,10.8,24.8,16.6,37.3c-4.7,6.6-7.6,10.2-7.6,10.2s0,0,0.1,0.1
		c-3.8,5-7.9,10.3-12.4,15.6c-15.9,18.9-34.8,40.7-37.4,46.9c-3.1,7.4-2.3,12.8,3.5,17.2c4.2,3.2,11.8,3.6,19.5,3.2
		c14.3-1,24.3-4.5,29.3-6.7c7.7-2.8,16.8-7,25.2-13.3c15.6-11.5,25.1-28,24.2-49.7c-0.4-11.9-4.4-23.9-9.2-35.1
		c1.5-2,2.8-4.1,4.2-6.1c24.6-36,43.7-75.5,43.7-75.5s1.7,12.1,7.7,32.2c2.9,10.2,8.9,21.3,14.1,32.1
		c-23.2,18.8-37.4,40.7-42.6,54.9c-9.2,26.5-2,38.5,11.5,41.2c6.1,1.3,14.9-1.6,21.3-4.4c8.2-2.6,17.8-7.1,27-13.8
		c15.6-11.5,30.6-27.5,29.7-49.3c-0.4-9.9-3.1-19.7-6.7-29.1c19.7-8.2,45-12.7,77.4-8.9c69.4,8.2,83.1,51.4,80.4,69.7
		c-2.6,18.2-17.2,28.1-22,31.2c-4.8,3.1-6.4,4.1-6,6.3c0.6,3.2,2.9,3.1,7,2.5c5.7-1,36.4-14.7,37.7-48.2
		C801.3,491.7,760.5,444.9,688.4,445.4L688.4,445.4z M153.3,625.8c-23,25.1-55.1,34.5-68.9,26.5c-14.9-8.6-9-45.6,19.2-72.1
		c17.2-16.2,39.3-31.2,54.1-40.4c3.4-2,8.3-5,14.3-8.6c1-0.6,1.6-0.9,1.6-0.9l0,0c1.2-0.7,2.3-1.5,3.5-2.2
		C187.4,566,177.5,599.4,153.3,625.8L153.3,625.8z M320.9,511.8c-8,19.5-24.8,69.5-35,66.7c-8.7-2.3-14.1-40.2-1.7-77.7
		c6.3-18.8,19.5-41.2,27.2-50c12.5-14,26.4-18.7,29.7-13C345.4,445.4,325.8,499.6,320.9,511.8L320.9,511.8z M459.2,578
		c-3.4,1.7-6.6,2.9-8,2c-1-0.6,1.5-2.9,1.5-2.9s17.3-18.7,24.2-27.1c3.9-5,8.6-10.8,13.6-17.3v1.9
		C490.3,556.8,468.8,571.8,459.2,578L459.2,578z M565.8,553.6c-2.5-1.7-2-7.6,6.3-25.8c3.2-7.1,10.8-19.1,23.8-30.6
		c1.5,4.7,2.5,9.2,2.3,13.4C598,538.8,577.9,549.3,565.8,553.6L565.8,553.6z"/>
</g>
</svg>
